<svg width="25" height="26" viewBox="0 0 25 26" fill="none" xmlns="http://www.w3.org/2000/svg">
<g id="Frame">
<path id="Vector" d="M22.1808 2.89588C21.6784 2.39354 20.997 2.11133 20.2865 2.11133C19.576 2.11133 18.8946 2.39354 18.3922 2.89588L17.2113 4.07676L20.9999 7.86538L22.1808 6.6845C22.6831 6.18207 22.9653 5.50067 22.9653 4.79019C22.9653 4.07971 22.6831 3.39831 22.1808 2.89588ZM19.917 8.94828L16.1284 5.15966L7.55503 13.733C6.92514 14.3626 6.46211 15.1392 6.20779 15.9927L5.39127 18.7331C5.35185 18.8654 5.34891 19.0058 5.38277 19.1396C5.41662 19.2734 5.486 19.3955 5.58358 19.4931C5.68115 19.5907 5.80329 19.6601 5.93707 19.6939C6.07085 19.7278 6.21129 19.7248 6.34353 19.6854L9.08395 18.8689C9.93743 18.6146 10.7141 18.1515 11.3436 17.5216L19.917 8.94828Z" fill="#248543"/>
<path id="Vector_2" d="M5.3627 5.9375C4.55063 5.9375 3.77182 6.26009 3.1976 6.83432C2.62338 7.40854 2.30078 8.18735 2.30078 8.99942V19.7161C2.30078 20.5282 2.62338 21.307 3.1976 21.8812C3.77182 22.4555 4.55063 22.7781 5.3627 22.7781H16.0794C16.8915 22.7781 17.6703 22.4555 18.2445 21.8812C18.8187 21.307 19.1413 20.5282 19.1413 19.7161V14.3578C19.1413 14.1548 19.0607 13.9601 18.9171 13.8165C18.7736 13.6729 18.5789 13.5923 18.3759 13.5923C18.1728 13.5923 17.9781 13.6729 17.8346 13.8165C17.691 13.9601 17.6104 14.1548 17.6104 14.3578V19.7161C17.6104 20.1222 17.4491 20.5116 17.162 20.7987C16.8749 21.0858 16.4855 21.2471 16.0794 21.2471H5.3627C4.95666 21.2471 4.56726 21.0858 4.28015 20.7987C3.99304 20.5116 3.83174 20.1222 3.83174 19.7161V8.99942C3.83174 8.59338 3.99304 8.20398 4.28015 7.91687C4.56726 7.62976 4.95666 7.46846 5.3627 7.46846H10.7211C10.9241 7.46846 11.1188 7.38781 11.2623 7.24426C11.4059 7.1007 11.4865 6.906 11.4865 6.70298C11.4865 6.49996 11.4059 6.30526 11.2623 6.1617C11.1188 6.01815 10.9241 5.9375 10.7211 5.9375H5.3627Z" fill="#248543"/>
</g>
</svg>
